<svg id="Layer_1" data-name="Layer 1" xmlns="http://www.w3.org/2000/svg" viewBox="0 0 715.74 590.16"><defs><style>.cls-1{font-size:57.91px;}.cls-1,.cls-10,.cls-11,.cls-12,.cls-14,.cls-2,.cls-3,.cls-4,.cls-6,.cls-8,.cls-9{fill:#fff;}.cls-1,.cls-2{font-family:Didot-Bold, Didot;font-weight:700;}.cls-1,.cls-4{letter-spacing:0.1em;}.cls-2{font-size:50.67px;letter-spacing:0.1em;}.cls-13,.cls-14,.cls-3,.cls-5,.cls-6,.cls-7{stroke:#fff;stroke-miterlimit:10;}.cls-3{stroke-width:1.43px;}.cls-4{font-size:14.48px;font-family:Poppins-ExtraLight, Poppins;font-weight:200;}.cls-13,.cls-5,.cls-7{fill:none;}.cls-5{stroke-width:4.08px;}.cls-6{stroke-width:0.78px;}.cls-7{stroke-width:2.72px;}.cls-8{font-size:35.33px;}.cls-10,.cls-11,.cls-12,.cls-8,.cls-9{font-family:Cochin;}.cls-9{font-size:21.74px;}.cls-10{font-size:35.33px;}.cls-11{font-size:19.02px;}.cls-12{font-size:35.33px;}.cls-13{stroke-width:3.81px;}.cls-14{stroke-width:2.47px;}</style></defs><title>AlibiXCommunion-White</title><text class="cls-1" transform="translate(258.43 468.64)">ALIBI</text><text class="cls-2" transform="translate(160.08 549.47)">COMMUNION</text><line class="cls-3" x1="353.02" y1="485.06" x2="364.9" y2="496.94"/><line class="cls-3" x1="353.02" y1="496.94" x2="364.9" y2="485.06"/><text class="cls-4" transform="translate(308.12 582.15)">Tabula Rasa</text><path class="cls-5" d="M316.73,277.6s-9.21-6.71,0-22.06c0,0-4.09-32.74,10.74-40.62,0,0,3.58-3.37,7.16-2.86S339.2,205,339.2,205" transform="translate(-1.87 -64.11)"/><path class="cls-5" d="M317.25,243.78s-13.44,8.86-39.46,3.66" transform="translate(-1.87 -64.11)"/><path class="cls-5" d="M284.49,429.06s3.59-123.52,28.15-149.54" transform="translate(-1.87 -64.11)"/><path class="cls-5" d="M360.13,246.43c-18.74.47-34.21-13.33-34.21-13.33,14.37-13.24,34.21-11.76,34.21-11.76s-13-1.48-12.87,11.76S360.13,246.43,360.13,246.43Z" transform="translate(-1.87 -64.11)"/><path class="cls-5" d="M327.67,285.32s-3-29.8-10.42-26.34" transform="translate(-1.87 -64.11)"/><path class="cls-5" d="M360.37,255.58s-40.87,12.81-44-4.55" transform="translate(-1.87 -64.11)"/><path class="cls-5" d="M360.13,268.59s-25.37,4.55-25.75-8.47" transform="translate(-1.87 -64.11)"/><path class="cls-5" d="M360.13,227.34s-5.23-.58-5.42,5.76,5.42,6.9,5.42,6.9" transform="translate(-1.87 -64.11)"/><path class="cls-5" d="M360.94,208.86s-13.84,8.2-22.69,2.22" transform="translate(-1.87 -64.11)"/><path class="cls-5" d="M5,214.92S.07,237.13,21,250.43,50.2,267.82,50.2,267.82s32.74,15.86,47.07,33.76,32,28.65,44.89,35.3c0,0,1.66,23,8.31,30.18S167.35,386,167.35,386s6.65,5.12,11.77,6.65A44.16,44.16,0,0,1,195,400.31c7.16,5.12,30.18,20.47,30.18,20.47s8.69,6.14,26.6,7.67,25.07,0,25.07,0,13.29.07,17.9,4.13" transform="translate(-1.87 -64.11)"/><path class="cls-5" d="M145.48,173.37s53.69.2,116.48,30.06c0,0,19.52,1.54,34.94,11.49a56.34,56.34,0,0,1,20.35,21.77" transform="translate(-1.87 -64.11)"/><path class="cls-5" d="M77.3,170.13s26.62,2.68,39.92,34.84,25.41,39.32,32.4,42.9,15.17,2.56,28.47,14.32,14.84,23,14.84,23a35.27,35.27,0,0,0,16.88,16.37" transform="translate(-1.87 -64.11)"/><path class="cls-5" d="M95.23,170.24s29.15,10.61,35.29,32.1,28.13,38.95,28.13,38.95,22.13,10.16,27.95,16.3,11.45,12.79,11.45,15.34,4.6,17.91,18.41,23" transform="translate(-1.87 -64.11)"/><path class="cls-5" d="M142.16,336.88s38.49-.51,62.54-30.18,67.52-49.11,83.89-53.72" transform="translate(-1.87 -64.11)"/><path class="cls-5" d="M316.73,255.54c-73.67,1-69.58-58.55-69.58-58.55" transform="translate(-1.87 -64.11)"/><path class="cls-5" d="M301.41,254.79s-44.6.89-39.45-51.36" transform="translate(-1.87 -64.11)"/><path class="cls-5" d="M247.11,205S151,157.32,31.79,217.69" transform="translate(-1.87 -64.11)"/><circle class="cls-5" cx="34.9" cy="164.23" r="11.8"/><path class="cls-5" d="M247.11,209.5l-103.55,3.84s-80.9,9.24-103.88,48.55" transform="translate(-1.87 -64.11)"/><path class="cls-5" d="M252.5,223S165.68,230,91.06,294.93" transform="translate(-1.87 -64.11)"/><path class="cls-5" d="M269.84,243.78s-112.33,39.8-144.76,83.08" transform="translate(-1.87 -64.11)"/><path class="cls-5" d="M106.18,311.47S128,280,174,261.89" transform="translate(-1.87 -64.11)"/><path class="cls-5" d="M129.66,229.11S78.19,252,59.85,273" transform="translate(-1.87 -64.11)"/><path class="cls-5" d="M15.81,209.5s39.36-5.67,44,13.53c0,0,25.14,25.35,41,29.95s41.1,34.7,44.63,43,10.27,22.92,6.61,39.85a19.52,19.52,0,0,0-8.53-12.06,9.89,9.89,0,0,1-4.11-12.28c.23-16.19-14.37-20-14.37-20a16.54,16.54,0,0,0-10.78-14.74c-.87-4.9-11.41-6.86-19.07-8.4s-16.38-2.56-17.93-12.78-17.45-9.12-17.45-9.12-13.23.93-30.62-6.29S16,190.82,16,190.82" transform="translate(-1.87 -64.11)"/><path class="cls-5" d="M171.78,226.27s29.72,1.74,38,5.34l5.56-1.51s.94-16.15-17.91-18.76S171.78,226.27,171.78,226.27Z" transform="translate(-1.87 -64.11)"/><path class="cls-5" d="M167.35,386s22.5-70.56,127.38-131.2" transform="translate(-1.87 -64.11)"/><path class="cls-5" d="M309.05,255.55s-12.78,9.22-16.37,17.4-6.65,17.38-5.62,23-5.58,24.43-5.58,24.43S264,378.32,267.11,386" transform="translate(-1.87 -64.11)"/><path class="cls-5" d="M189.6,320.77s18.68,32.48,20.21,38.11,17.39,9.72,17.39,9.72,16.29,2,19.91,8.69c0,0,10.79-52.67,16.42-56.52,0,0,1.87-6,6.31-9.3s16.87-20.87,18-24.79" transform="translate(-1.87 -64.11)"/><path class="cls-5" d="M176.41,328.36s15.27,10.57,17.17,22.84a38.39,38.39,0,0,0,10.09,10.24c6.65,4.6,15.35,14.83,15.86,15.85s3.71,3.07,11.83,4.61,20.4,8.69,27.05,15.34,27.4,6.16,27.4,6.16,3.55,8.13,17,7.12" transform="translate(-1.87 -64.11)"/><path class="cls-5" d="M303.68,403.26s-12-4-15.86-13.69c0,0-20.58,1.54-26.28-5.63S247.11,380,247.11,380" transform="translate(-1.87 -64.11)"/><path class="cls-5" d="M231,423.75s11.33-29.23,13.7-36.48" transform="translate(-1.87 -64.11)"/><path class="cls-5" d="M206.2,408s5.15-26.65,13.33-30.75" transform="translate(-1.87 -64.11)"/><path class="cls-5" d="M186.6,392.67s9.55-31.43,12.55-34.92" transform="translate(-1.87 -64.11)"/><path class="cls-5" d="M227.2,368.6s27-53,42.64-57.13c0,0,9.24-20.73-32.46-16.54-10.18,1-28.08,47.07-27.57,63.95,0,0,34.08-42.46,54.55-44.51" transform="translate(-1.87 -64.11)"/><path class="cls-5" d="M360.13,203.43l-12.79-1c-12.8-1-77.18-29-77.18-29h11.31s-36.27-16.82-10.94-19.89c4.63-.56-16.12-14.57-13-26.08s10,0,10,0c-2.89-17.42,14-26.86,14-26.86,10.17,5.37,10.58,31.46,10.58,31.46,12.31,6.14,7.66,31.46,7.66,31.46,19.58,33.53,60.42,31.85,60.42,31.85-9.54,0-10.79,3.45-10.79,3.45-2.69,11.89-26.09,3.07-26.09,3.07C279.13,192.62,239.61,185,239.61,185S115.68,165.38,58.9,171.13,4.42,222.55,4.42,222.55s-5.76,21.1,21.48,46.8,81.73,55.25,89.78,60.24,26.48,7.29,26.48,7.29a60.87,60.87,0,0,0-8.06,29.93c0,17.26,8.06,27.62,8.06,27.62s52.94,41.44,67.14,48.73,18.8,8.44,38.75,9.59S273.76,447,288,438.94s15.73-35.68,15.73-35.68,2.69-67.91,3.84-98.61,9.21-27,9.21-27,15.34,1,17.65,30.5,4.22,44.51,15.73,61,19.18,0,19.18,0" transform="translate(-1.87 -64.11)"/><path class="cls-5" d="M281.47,100.54s-27.15,79.29,67.87,98.22" transform="translate(-1.87 -64.11)"/><path class="cls-5" d="M402.76,277.61s9.2-6.72,0-22.07c0,0,4.09-32.74-10.75-40.61,0,0-3.58-3.38-7.16-2.87s-4.57-7.09-4.57-7.09" transform="translate(-1.87 -64.11)"/><path class="cls-5" d="M402.76,255.54c73.66,1,69.57-58.55,69.57-58.55" transform="translate(-1.87 -64.11)"/><path class="cls-5" d="M418.08,254.79s44.6.9,39.45-51.35" transform="translate(-1.87 -64.11)"/><path class="cls-5" d="M402.24,243.78s13.43,8.87,39.46,3.66" transform="translate(-1.87 -64.11)"/><path class="cls-5" d="M410.43,255.56s12.79,9.21,16.37,17.39,6.65,17.38,5.63,23S438,320.39,438,320.39s17.44,57.93,14.37,65.6" transform="translate(-1.87 -64.11)"/><path class="cls-5" d="M435,429.06s-3.6-123.52-28.15-149.54" transform="translate(-1.87 -64.11)"/><path class="cls-5" d="M415.8,403.26s12-4,15.86-13.69c0,0,20.59,1.54,26.28-5.62S472.37,380,472.37,380" transform="translate(-1.87 -64.11)"/><path class="cls-5" d="M359.35,246.43c18.75.48,34.22-13.33,34.22-13.33-14.38-13.24-34.22-11.75-34.22-11.75s13-1.49,12.88,11.75S359.35,246.43,359.35,246.43Z" transform="translate(-1.87 -64.11)"/><path class="cls-5" d="M391.81,285.32s3-29.8,10.43-26.33" transform="translate(-1.87 -64.11)"/><path class="cls-5" d="M359.12,255.58s40.87,12.81,44-4.55" transform="translate(-1.87 -64.11)"/><path class="cls-5" d="M359.35,268.59s25.37,4.55,25.76-8.47" transform="translate(-1.87 -64.11)"/><path class="cls-5" d="M359.35,227.34s5.23-.57,5.42,5.76-5.42,6.91-5.42,6.91" transform="translate(-1.87 -64.11)"/><path class="cls-5" d="M358.8,208.86s13.58,8.21,22.44,2.22" transform="translate(-1.87 -64.11)"/><path class="cls-5" d="M714.47,214.93s4.94,22.2-16,35.5-29.16,17.39-29.16,17.39-32.74,15.86-47.06,33.77-32,28.64-44.89,35.29c0,0-1.67,23-8.32,30.19S552.13,386,552.13,386s-6.65,5.12-11.76,6.65a43.9,43.9,0,0,0-15.86,7.68c-7.16,5.11-30.18,20.46-30.18,20.46s-8.7,6.14-26.61,7.67-25.06,0-25.06,0-13.3.07-17.9,4.13" transform="translate(-1.87 -64.11)"/><path class="cls-5" d="M574,173.37s-55.72,1.32-118.24,30.88c0,0-22.53,1.8-31,6.83-9.45,5.6-15.62,15.19-22.52,25.61" transform="translate(-1.87 -64.11)"/><path class="cls-5" d="M642.18,170.14s-26.61,2.68-39.91,34.83-25.41,39.32-32.4,42.9-15.18,2.56-28.48,14.33-14.84,23-14.84,23a35.31,35.31,0,0,1-16.88,16.37" transform="translate(-1.87 -64.11)"/><path class="cls-5" d="M624.25,170.24S595.1,180.86,589,202.34s-28.13,38.95-28.13,38.95-22.13,10.16-28,16.3-11.44,12.79-11.44,15.35-4.61,17.9-18.42,23" transform="translate(-1.87 -64.11)"/><path class="cls-5" d="M577.33,336.88s-38.5-.51-62.54-30.18-67.53-49.11-83.9-53.71" transform="translate(-1.87 -64.11)"/><path class="cls-5" d="M472.37,205s96.13-47.71,215.33,12.66" transform="translate(-1.87 -64.11)"/><circle class="cls-5" cx="680.83" cy="164.23" r="11.8"/><path class="cls-5" d="M472.37,209.5l103.56,3.84s80.89,9.24,103.87,48.55" transform="translate(-1.87 -64.11)"/><path class="cls-5" d="M467,223s86.82,6.93,161.44,71.9" transform="translate(-1.87 -64.11)"/><path class="cls-5" d="M449.65,243.78S562,283.58,594.4,326.86" transform="translate(-1.87 -64.11)"/><path class="cls-5" d="M613.3,311.48S591.52,280,545.48,261.89" transform="translate(-1.87 -64.11)"/><path class="cls-5" d="M589.82,229.12S641.3,252,659.64,273" transform="translate(-1.87 -64.11)"/><path class="cls-5" d="M703.68,209.5s-39.36-5.67-44,13.54c0,0-25.15,25.34-41,30s-41.11,34.7-44.63,43-10.27,22.92-6.61,39.85a19.47,19.47,0,0,1,8.53-12.06,9.88,9.88,0,0,0,4.1-12.27c-.23-16.2,14.37-20,14.37-20a16.55,16.55,0,0,1,10.78-14.74c.87-4.9,11.41-6.86,19.07-8.4s16.38-2.55,17.93-12.77,17.46-9.13,17.46-9.13,13.22.93,30.61-6.28,13.29-49.33,13.29-49.33" transform="translate(-1.87 -64.11)"/><path class="cls-5" d="M547.7,226.27s-29.71,1.75-38,5.34l-5.56-1.51S503.17,214,522,211.34,547.7,226.27,547.7,226.27Z" transform="translate(-1.87 -64.11)"/><path class="cls-5" d="M552.13,386s-22.5-70.56-127.37-131.19" transform="translate(-1.87 -64.11)"/><path class="cls-5" d="M529.88,320.78s-18.67,32.47-20.21,38.1-17.39,9.72-17.39,9.72-16.29,2-19.91,8.7c0,0-10.78-52.68-16.41-56.52,0,0-1.88-6.06-6.31-9.3s-16.88-20.87-18-24.8" transform="translate(-1.87 -64.11)"/><path class="cls-5" d="M543.08,328.36s-15.27,10.57-17.18,22.85a38.44,38.44,0,0,1-10.09,10.23c-6.65,4.6-15.35,14.83-15.86,15.86s-3.71,3.07-11.83,4.6-20.4,8.7-27.05,15.35-27.39,6.16-27.39,6.16-3.56,8.12-17,7.12" transform="translate(-1.87 -64.11)"/><path class="cls-5" d="M488.44,423.75s-11.32-29.22-13.7-36.48" transform="translate(-1.87 -64.11)"/><path class="cls-5" d="M513.29,408S508.14,381.39,500,377.3" transform="translate(-1.87 -64.11)"/><path class="cls-5" d="M532.88,392.67s-9.55-31.43-12.54-34.91" transform="translate(-1.87 -64.11)"/><path class="cls-5" d="M492.28,368.6s-27-53-42.63-57.12c0,0-9.25-20.74,32.45-16.54,10.18,1,28.08,47.06,27.57,63.94,0,0-34.08-42.46-54.54-44.51" transform="translate(-1.87 -64.11)"/><path class="cls-5" d="M359.35,203.44l12.8-1c12.8-1,77.18-29,77.18-29H438s36.27-16.81,10.95-19.88c-4.64-.56,16.11-14.58,13-26.09s-12.67,0-12.67,0c7.3-16.12-11.32-26.86-11.32-26.86C427.84,105.91,427.44,132,427.44,132c-12.31,6.14-7.67,31.46-7.67,31.46-10.63,33.53-60.42,31.85-60.42,31.85,9.54,0,10.79,3.45,10.79,3.45,2.69,11.9,26.09,3.07,26.09,3.07,44.13-9.21,83.64-16.88,83.64-16.88s123.93-19.57,180.71-13.81,54.49,51.41,54.49,51.41,5.75,21.1-21.49,46.81-81.72,55.25-89.78,60.23-26.47,7.29-26.47,7.29a60.92,60.92,0,0,1,8,29.93c0,17.26-8,27.62-8,27.62s-53,41.44-67.15,48.73-18.8,8.44-38.75,9.59-25.7-5.75-39.9-13.81-15.73-35.68-15.73-35.68-2.68-67.91-3.84-98.61-9.2-27-9.2-27-15.35,1-17.65,30.5-4.22,44.5-15.73,61-19.19,0-19.19,0" transform="translate(-1.87 -64.11)"/><path class="cls-5" d="M438,100.54s16.1,89.49-67.87,98.22" transform="translate(-1.87 -64.11)"/><circle class="cls-5" cx="431.18" cy="165" r="16.6"/><circle class="cls-5" cx="431.35" cy="165" r="8.47"/><path class="cls-5" d="M333.66,302s29.57-7.46,52.17,0" transform="translate(-1.87 -64.11)"/><path class="cls-5" d="M335.2,318.11s34.91-8,49.08,0" transform="translate(-1.87 -64.11)"/><path class="cls-5" d="M337,333.91s27-6.62,45.49,0" transform="translate(-1.87 -64.11)"/><path class="cls-5" d="M379.08,349.46c-9.73-3.91-27.39-1.8-35-.62-2.28.35-3.66.62-3.66.62" transform="translate(-1.87 -64.11)"/><path class="cls-6" d="M360.08,142.28s-5.63,6.38-17.15,9.35a32.72,32.72,0,0,0,17.15,24s14-6.12,17.16-24.09C377.24,151.56,367.24,149.52,360.08,142.28Z" transform="translate(-1.87 -64.11)"/><path class="cls-6" d="M375.69,130.92s4.77,6.7,3.8,19.16c0,0,17.27,2.85,29.65-9.59,0,0-2.05-15.18-18.26-23.57C390.88,116.92,387,126,375.69,130.92Z" transform="translate(-1.87 -64.11)"/><path class="cls-7" d="M411.11,135.93s-4.41-14.1-17.89-21.29A38.17,38.17,0,0,0,394,86.09s16.66.71,22.5,16.27C421.73,116.35,417,128.23,411.11,135.93Z" transform="translate(-1.87 -64.11)"/><path class="cls-6" d="M344.37,130.93s-4.2,6.63-3.73,19.15c0,0-17.27,2.85-29.65-9.59,0,0,2.05-15.18,18.26-23.57C329.25,116.92,333,126,344.37,130.93Z" transform="translate(-1.87 -64.11)"/><path class="cls-6" d="M370.4,111.93a34.88,34.88,0,0,1,19.7,2.37s7.7-14.33-.14-30a34,34,0,0,0-28.38,9.26S369.42,101.91,370.4,111.93Z" transform="translate(-1.87 -64.11)"/><path class="cls-7" d="M386.89,80.91s-13.44-1.46-26.81,9.56c0,0-10.93-10.59-27-9.37,0,0,6.77-14.11,23.34-15.48C373.48,64.22,381.11,72.8,386.89,80.91Z" transform="translate(-1.87 -64.11)"/><path class="cls-6" d="M349.61,112.1a34.77,34.77,0,0,0-19.7,2.37s-7.7-14.33.13-30a34,34,0,0,1,28.39,9.27S350.59,102.08,349.61,112.1Z" transform="translate(-1.87 -64.11)"/><path class="cls-6" d="M360,95a32.37,32.37,0,0,0-8.26,17.51,27.39,27.39,0,0,1,8.26,2.79,29.67,29.67,0,0,1,8.37-2.92S367,101.86,360,95Z" transform="translate(-1.87 -64.11)"/><path class="cls-6" d="M377.49,149.62a37.24,37.24,0,0,0-3.44-17.8,31.69,31.69,0,0,1-7.69,2.24,37.24,37.24,0,0,1-5,6.88A33.21,33.21,0,0,0,377.49,149.62Z" transform="translate(-1.87 -64.11)"/><path class="cls-6" d="M342.75,149.62A36.28,36.28,0,0,1,346,131.76a32.75,32.75,0,0,0,7.84,2.3,27.74,27.74,0,0,0,4.88,6.92A32.64,32.64,0,0,1,342.75,149.62Z" transform="translate(-1.87 -64.11)"/><path class="cls-6" d="M389.29,116a34.78,34.78,0,0,0-18.78-2.1,36.28,36.28,0,0,1-.28,9.1A43.9,43.9,0,0,1,375,129.4S384.69,124.66,389.29,116Z" transform="translate(-1.87 -64.11)"/><path class="cls-6" d="M330.64,116a34.73,34.73,0,0,1,18.77-2.1,36.54,36.54,0,0,0,.29,9.1,51.69,51.69,0,0,0-4.47,6.41S335.24,124.66,330.64,116Z" transform="translate(-1.87 -64.11)"/><path class="cls-6" d="M369.64,124.7a27.52,27.52,0,0,1-2.43,7.6s3.28-1,6.08-2.16A38.72,38.72,0,0,0,369.64,124.7Z" transform="translate(-1.87 -64.11)"/><path class="cls-6" d="M358.08,116.41a33.57,33.57,0,0,0-6.52,4.82,41.73,41.73,0,0,1-.11-7A48.45,48.45,0,0,1,358.08,116.41Z" transform="translate(-1.87 -64.11)"/><path class="cls-6" d="M350.41,125.15a35.77,35.77,0,0,0,2.41,6.84,49.26,49.26,0,0,1-5.91-1.89A52.27,52.27,0,0,1,350.41,125.15Z" transform="translate(-1.87 -64.11)"/><path class="cls-6" d="M362.13,116.41a33.57,33.57,0,0,1,6.52,4.82,40.6,40.6,0,0,0,.11-7A48.45,48.45,0,0,0,362.13,116.41Z" transform="translate(-1.87 -64.11)"/><path class="cls-6" d="M364.08,134.39a50.94,50.94,0,0,1-7.95,0,38.67,38.67,0,0,0,4,5.2A30.22,30.22,0,0,0,364.08,134.39Z" transform="translate(-1.87 -64.11)"/><path class="cls-6" d="M360.08,117.37s-6.66,3.53-8.59,6a69.67,69.67,0,0,0,3.56,9.07,36.2,36.2,0,0,0,10.09-.05s2.8-5.91,3.06-8.93A39.62,39.62,0,0,0,360.08,117.37Z" transform="translate(-1.87 -64.11)"/><path class="cls-7" d="M308.88,135.93s4.41-14.1,17.89-21.29A38.17,38.17,0,0,1,326,86.09S309.14,88,303.3,103.51C298.05,117.5,303,128.23,308.88,135.93Z" transform="translate(-1.87 -64.11)"/><path class="cls-7" d="M365,177s12.83-9,15.11-23.93c0,0,15.81,2.7,29.06-8.42,0,0,2.46,17.84-10.69,28C386.63,181.74,374.07,180.34,365,177Z" transform="translate(-1.87 -64.11)"/><path class="cls-7" d="M355.14,177s-12.83-9-15.11-23.94c0,0-15.82,2.71-29.07-8.42,0,0-2.46,17.85,10.69,28C333.47,181.78,346,180.38,355.14,177Z" transform="translate(-1.87 -64.11)"/><text class="cls-8" transform="translate(331.39 228.59) rotate(-12)">α</text><text class="cls-9" transform="translate(347.34 225.87) rotate(-3)">Γ</text><text class="cls-10" transform="translate(356.92 224.22) rotate(2)">ι</text><text class="cls-11" transform="translate(366.3 224.88) rotate(5)">β</text><text class="cls-12" transform="translate(373.76 224.1) rotate(16.42)">ι</text><circle class="cls-13" cx="284.41" cy="166.57" r="15.76"/><circle class="cls-13" cx="284.41" cy="166.57" r="7.14"/><line class="cls-14" x1="374.36" y1="491" x2="545.83" y2="491"/><line class="cls-14" x1="342.15" y1="491" x2="165.48" y2="491"/></svg>